PathFileType  4	(X/Y/Z) C:\Users\antoi\Documents\MyRepositories\mobilecap\ResultsAnalysis
DataRate	CameraRate	NumFrames	NumMarkers	Units	OrigDataRate	OrigDataStartFrame	OrigNumFrames
100.0	100.0	4	51	mm	100.0	1	284
Frame#	Time	r_knee			r_shank_antsup			r_ankle			r_calc			r_5meta			r_toe			L_knee			L_shank_antsup			L_ankle			L_calc			L_5meta			L_toe			r_sh2			r_sh3			r_sh4			L_sh2			L_sh3			r_thigh1			r_thigh2			r_thigh3			r_thigh4			r_thigh5			L_thigh1			L_thigh2			L_thigh3			L_thigh4			r.ASIS			r.PSIS			L.ASIS			L.PSIS			C7			R_Shoulder			L_Shoulder			R_Sternum			L_Sternum			R_humerus			R_elbow_med			R_elbow_lat			R_forearm			R_wrist_radius			R_wrist_ulna			L_humerus			L_elbow_med			L_elbow_lat			L_forearm			L_wrist_radius			L_wrist_ulna			R_HJC			L_HJC			R_HJC_reg			L_HJC_reg			
		X1	Y1	Z1	X2	Y2	Z2	X3	Y3	Z3	X4	Y4	Z4	X5	Y5	Z5	X6	Y6	Z6	X7	Y7	Z7	X8	Y8	Z8	X9	Y9	Z9	X10	Y10	Z10	X11	Y11	Z11	X12	Y12	Z12	X13	Y13	Z13	X14	Y14	Z14	X15	Y15	Z15	X16	Y16	Z16	X17	Y17	Z17	X18	Y18	Z18	X19	Y19	Z19	X20	Y20	Z20	X21	Y21	Z21	X22	Y22	Z22	X23	Y23	Z23	X24	Y24	Z24	X25	Y25	Z25	X26	Y26	Z26	X27	Y27	Z27	X28	Y28	Z28	X29	Y29	Z29	X30	Y30	Z30	X31	Y31	Z31	X32	Y32	Z32	X33	Y33	Z33	X34	Y34	Z34	X35	Y35	Z35	X36	Y36	Z36	X37	Y37	Z37	X38	Y38	Z38	X39	Y39	Z39	X40	Y40	Z40	X41	Y41	Z41	X42	Y42	Z42	X43	Y43	Z43	X44	Y44	Z44	X45	Y45	Z45	X46	Y46	Z46	X47	Y47	Z47	X48	Y48	Z48	X49	Y49	Z49	X50	Y50	Z50	X51	Y51	Z51	

1	0.00000000	-1178.31324	909.45272	-417.86065	-1173.62740	759.12831	-420.34571	-1303.27404	412.77987	-422.63407	-1360.61523	383.49120	-487.57118	-1172.55199	349.19494	-386.08081	-1131.14782	373.41631	-436.16902	-1198.94915	909.95684	-758.51273	-1178.25850	707.51675	-736.75352	-1305.94848	422.41152	-731.89943	-1360.59216	386.29956	-664.63795	-1172.83850	339.10962	-777.77031	-1126.71091	371.82829	-725.32370	-1198.49174	647.31790	-425.60241	-1237.14641	769.27082	-383.67054	-1266.20853	662.41458	-377.61884	-1247.25344	727.27194	-788.82243	-1275.96154	612.31821	-770.32055	-1151.13440	1208.02227	-392.44396	-1132.97678	1095.95716	-393.32871	-1192.87567	1063.49656	-387.39150	-1259.36229	1192.83278	-420.71597	-1242.59199	1073.10773	-411.50375	-1128.64277	1208.59228	-772.98271	-1132.44086	1071.69211	-767.50957	-1239.42420	1212.39784	-782.54463	-1239.95151	1074.39187	-784.27983	-1102.44340	1487.39765	-460.54671	-1293.68995	1518.00460	-542.69641	-1117.31735	1480.30071	-727.98063	-1296.12109	1520.89160	-635.42490	-1235.10745	2007.74804	-609.80984	-1174.43087	1968.01946	-438.36388	-1185.58052	1975.60033	-784.71057	-1094.76156	1924.28934	-581.24048	-1093.83649	1924.52489	-630.36489	-1207.15781	1704.64081	-354.32222	-1315.31137	1550.53455	-364.81202	-1291.07933	1616.56921	-317.72253	-1179.39775	1434.14135	-287.78462	-1135.65751	1350.43141	-288.37847	-1165.48964	1344.33304	-264.02903	-1201.28464	1686.95698	-851.87148	-1297.20024	1612.93342	-809.52215	-1271.00429	1611.66409	-884.97089	-1168.97180	1429.23364	-898.98179	-1135.40257	1360.08341	-886.73228	-1157.65593	1357.44509	-913.33239	-1184.56742	1392.46702	-491.96326	-1198.08212	1391.74310	-688.97540	-1175.28417	1398.65175	-499.40159	-1179.91673	1404.15296	-676.09650	
2	0.01000000	-1176.84799	909.11623	-417.35315	-1172.47734	758.71729	-420.08168	-1303.23000	412.63855	-422.80260	-1360.59032	383.51397	-487.56590	-1172.48647	349.25742	-386.12460	-1131.12007	373.42289	-436.15470	-1197.37408	909.42279	-758.62977	-1177.04835	706.93390	-736.83759	-1305.90358	422.40168	-731.94481	-1360.56813	386.34366	-664.78745	-1172.79813	339.12598	-777.75110	-1126.70238	371.82314	-725.30620	-1197.75917	647.35963	-425.47666	-1235.82880	769.08513	-383.47260	-1264.71802	661.12820	-377.86870	-1246.02808	726.98358	-789.13531	-1274.97522	612.10895	-770.57115	-1151.07543	1207.94594	-392.25826	-1132.65289	1095.88521	-392.97891	-1192.36444	1063.06103	-387.08201	-1259.41169	1192.00176	-420.68936	-1242.10835	1072.69840	-411.19406	-1128.63058	1208.25549	-773.14081	-1131.89324	1071.56361	-767.71575	-1239.45368	1211.29767	-781.81343	-1239.33942	1073.63167	-784.23656	-1105.39468	1487.38004	-457.65187	-1294.61113	1517.88299	-542.62664	-1118.37835	1479.75838	-728.04629	-1297.08271	1520.67197	-635.45825	-1233.18182	2007.67577	-609.61112	-1172.68312	1967.55040	-438.54574	-1183.85216	1975.26608	-784.26875	-1093.32024	1923.33045	-581.35386	-1092.42766	1923.43908	-630.64725	-1206.93054	1704.65500	-353.97595	-1315.25085	1551.78284	-364.49704	-1291.25098	1617.16983	-317.10414	-1179.30548	1434.87136	-286.78888	-1135.54158	1351.47109	-286.58276	-1165.28605	1345.11226	-262.87302	-1201.44079	1686.94391	-852.62568	-1297.89110	1613.42008	-810.32708	-1271.60704	1612.21899	-885.79161	-1169.76310	1429.50891	-899.66499	-1136.20766	1360.52374	-887.32496	-1158.33023	1357.86648	-914.08284	-1186.90395	1392.38289	-490.95059	-1199.07282	1391.35464	-688.04764	-1177.20171	1397.64035	-496.94322	-1181.95691	1403.00607	-675.54133	
3	0.02000000	-1175.44111	908.83113	-416.92601	-1171.30915	758.32962	-419.81471	-1303.11983	412.67758	-422.84951	-1360.55830	383.54653	-487.54644	-1172.45580	349.27610	-386.15126	-1131.08822	373.42113	-436.16244	-1195.87332	909.01247	-758.90775	-1175.95297	706.39535	-736.95965	-1305.86729	422.36050	-731.97987	-1360.58266	386.33046	-664.84583	-1172.78213	339.16793	-777.73973	-1126.69878	371.83092	-725.28888	-1196.97043	647.21306	-425.40320	-1234.61238	769.00786	-383.12709	-1263.92545	661.10948	-377.69808	-1244.76632	726.63424	-789.41223	-1274.09114	611.87088	-770.80564	-1151.15427	1207.68568	-391.99211	-1132.19641	1095.84227	-392.61153	-1191.82576	1062.63432	-386.72374	-1259.50281	1191.34226	-420.35528	-1241.56353	1072.06854	-410.97238	-1128.71578	1207.97537	-773.33870	-1131.29790	1071.37305	-767.96829	-1239.58201	1210.33573	-781.42749	-1238.77884	1072.94953	-784.40290	-1108.79488	1486.03215	-457.53217	-1295.55601	1517.71886	-542.53825	-1119.73025	1478.03751	-728.13265	-1298.04661	1520.48537	-635.48992	-1231.17049	2007.56322	-609.68409	-1170.94925	1967.12842	-438.65884	-1182.02011	1974.84626	-784.36537	-1091.89191	1922.21766	-581.26683	-1090.97298	1922.32713	-630.81632	-1206.62359	1704.64761	-353.53527	-1315.18407	1553.05979	-364.18157	-1291.46471	1617.64169	-316.35745	-1179.21775	1435.64342	-285.64480	-1135.31394	1352.45945	-285.20870	-1164.98582	1345.91323	-261.67202	-1201.59353	1686.87103	-853.21658	-1298.48311	1613.89544	-811.01333	-1272.17329	1612.74166	-886.67697	-1170.47106	1429.84307	-900.42243	-1137.03958	1360.97918	-887.99249	-1158.98276	1358.31288	-914.86245	-1189.85600	1391.48559	-490.76346	-1201.31061	1390.37108	-687.90484	-1179.98624	1396.62218	-496.82482	-1184.77374	1401.94056	-675.50448	
4	0.03000000	-1173.98545	908.46680	-416.59514	-1170.09456	757.91626	-419.61590	-1303.04835	412.79503	-422.84083	-1360.53510	383.57923	-487.52360	-1172.43161	349.28147	-386.17000	-1131.06576	373.42597	-436.20453	-1194.47256	908.58357	-759.21688	-1174.94128	705.86704	-737.05499	-1305.83909	422.29144	-732.00637	-1360.63397	386.24066	-664.77795	-1172.78699	339.22581	-777.74486	-1126.69521	371.85315	-725.27261	-1196.10673	646.96504	-425.40639	-1233.42060	768.90014	-382.76945	-1263.18201	660.96717	-377.44356	-1243.55374	726.26360	-789.59544	-1273.38807	611.59360	-770.91753	-1151.29256	1207.35716	-391.56293	-1131.65358	1095.79468	-392.22013	-1191.19657	1062.18552	-386.36116	-1259.53205	1190.64577	-419.95168	-1240.97605	1071.38875	-410.65624	-1128.90080	1207.79455	-773.57277	-1130.74550	1071.11330	-768.30971	-1239.80132	1209.60516	-781.52562	-1238.33855	1072.23057	-784.63113	-1111.20643	1484.56517	-458.57582	-1296.53545	1517.52809	-542.45862	-1121.06338	1476.47099	-728.23789	-1299.02953	1520.32323	-635.55037	-1229.06137	2007.39715	-609.86611	-1169.17936	1966.69490	-438.74722	-1180.09708	1974.32435	-784.70168	-1090.32593	1920.98667	-581.15906	-1089.44894	1921.12902	-630.87420	-1206.25982	1704.63814	-353.00333	-1315.10899	1554.37481	-363.86553	-1291.70535	1618.01908	-315.50279	-1179.07685	1436.39163	-284.48364	-1134.96752	1353.26629	-284.28377	-1164.58376	1346.74365	-260.46405	-1201.74426	1686.71758	-853.69162	-1299.00697	1614.32614	-811.73944	-1272.66706	1613.20057	-887.57834	-1171.11031	1430.22575	-901.21244	-1137.86873	1361.39046	-888.78306	-1159.64853	1358.71317	-915.73303	-1192.18909	1390.52322	-491.02451	-1203.54654	1389.47730	-688.17157	-1182.33523	1395.89716	-497.70873	-1187.10488	1401.24260	-675.73931	
